<?xml version="1.0" encoding="utf-8"?>
<svg width="434" height="434" viewBox="0 0 434 434" fill="none" xmlns="http://www.w3.org/2000/svg">
  <title>ionicons-v5_logos</title>
  <path d="M 347.156 316.898 C 346.482 316.898 345.872 317.215 345.486 317.716 C 340.694 324.201 335.259 330.431 329.206 336.107 C 320.679 344.099 311.26 351.09 301.061 356.799 C 299.256 357.813 300.007 360.441 302.1 360.441 L 373.723 360.441 C 374.859 360.441 375.773 359.561 375.773 358.487 L 375.773 318.864 C 375.773 317.776 374.859 316.898 373.723 316.898 L 347.156 316.898 Z" fill="#EE4723" style=""/>
  <path d="M 346.775 239.509 C 346.775 210.772 329.265 174.636 289.038 129.037 C 261.241 97.533 233.813 73.375 232.669 72.358 L 217.303 58.866 C 216.459 58.117 215.126 58.117 214.272 58.866 L 198.907 72.358 C 197.752 73.375 170.329 97.533 142.527 129.037 C 102.306 174.636 82.938 214.563 82.938 243.3 C 82.938 262.666 87.834 283.991 96.526 300.944 C 96.891 301.641 97.668 302.082 98.526 302.082 L 151.68 302.082 C 153.57 302.082 154.579 300.038 153.34 298.735 C 139.957 284.492 131.953 263.265 131.953 243.3 C 131.953 235.341 136.581 209.577 180.288 159.944 C 192.412 146.173 204.626 132.887 214.226 123.457 C 215.084 122.598 216.546 122.598 217.416 123.444 C 227.03 132.735 239.252 144.751 251.386 158.525 C 295.097 208.166 299.828 231.8 299.828 239.754 C 299.828 282.383 257.818 317.043 212.363 317.324 C 212.18 317.324 67.696 317.208 67.696 317.208 C 66.481 317.208 65.502 318.127 65.502 319.25 L 65.502 360.501 C 65.502 361.634 66.481 362.534 67.696 362.534 C 104.818 362.534 212.188 362.534 212.38 362.534 C 285.052 362.199 346.775 307.138 346.775 239.509 Z" fill="#EE4723" style=""/>
</svg>