<svg xmlns="http://www.w3.org/2000/svg" version="1.1" xmlns:xlink="http://www.w3.org/1999/xlink" xmlns:svgjs="http://svgjs.dev/svgjs" width="1000" height="625" viewBox="0 0 1000 625"><g transform="matrix(1,0,0,1,0,0)"><svg viewBox="0 0 512 320" data-background-color="#ffffff" preserveAspectRatio="xMidYMid meet" height="625" width="1000" xmlns="http://www.w3.org/2000/svg" xmlns:xlink="http://www.w3.org/1999/xlink"><g id="tight-bounds" transform="matrix(1,0,0,1,0,0)"><svg viewBox="0 0 512 320" height="320" width="512"><g><svg></svg></g><g><svg viewBox="0 0 512 320" height="320" width="512"><g><path d="M96 320l0-320 320 0 0 320zM403.595 307.595l0-295.19-295.19 0 0 295.19z" fill="#ff4136" fill-rule="nonzero" stroke="none" stroke-width="1" stroke-linecap="butt" stroke-linejoin="miter" stroke-miterlimit="10" stroke-dasharray="" stroke-dashoffset="0" font-family="none" font-weight="none" font-size="none" text-anchor="none" style="mix-blend-mode: normal" data-fill-palette-color="tertiary"></path></g><g transform="matrix(1,0,0,1,140.8,91.22388059701493)"><svg viewBox="0 0 230.4 137.55223880597015" height="137.55223880597015" width="230.4"><g><svg viewBox="0 0 230.4 137.55223880597015" height="137.55223880597015" width="230.4"><g><svg viewBox="0 0 230.4 137.55223880597015" height="137.55223880597015" width="230.4"><g><svg viewBox="0 0 230.4 137.55223880597015" height="137.55223880597015" width="230.4"><g id="textblocktransform"><svg viewBox="0 0 230.4 137.55223880597015" height="137.55223880597015" width="230.4" id="textblock"><g><svg viewBox="0 0 230.4 137.55223880597015" height="137.55223880597015" width="230.4"><g transform="matrix(1,0,0,1,0,0)"><svg width="230.4" viewBox="2.1 -35.5 60.3 36" height="137.55223880597015" data-palette-color="#ff4136"><path d="M15.6 0.5L15.6 0.5Q11.25 0.5 8.3-0.85 5.35-2.2 3.78-4.33 2.2-6.45 2.1-8.8L2.1-8.8Q2.1-9.2 2.43-9.53 2.75-9.85 3.2-9.85L3.2-9.85 5.75-9.85Q6.35-9.85 6.65-9.55 6.95-9.25 7.05-8.85L7.05-8.85Q7.35-7.65 8.3-6.48 9.25-5.3 11.03-4.53 12.8-3.75 15.6-3.75L15.6-3.75Q19.9-3.75 21.93-5.28 23.95-6.8 23.95-9.35L23.95-9.35Q23.95-11.1 22.88-12.18 21.8-13.25 19.6-14.1 17.4-14.95 13.9-15.95L13.9-15.95Q10.25-17 7.85-18.25 5.45-19.5 4.28-21.35 3.1-23.2 3.1-26.05L3.1-26.05Q3.1-28.75 4.55-30.88 6-33 8.75-34.25 11.5-35.5 15.35-35.5L15.35-35.5Q18.45-35.5 20.78-34.68 23.1-33.85 24.65-32.48 26.2-31.1 27-29.53 27.8-27.95 27.85-26.45L27.85-26.45Q27.85-26.1 27.6-25.78 27.35-25.45 26.8-25.45L26.8-25.45 24.15-25.45Q23.8-25.45 23.43-25.65 23.05-25.85 22.85-26.4L22.85-26.4Q22.55-28.45 20.55-29.85 18.55-31.25 15.35-31.25L15.35-31.25Q12.1-31.25 10.08-30 8.05-28.75 8.05-26.1L8.05-26.1Q8.05-24.4 9-23.28 9.95-22.15 12-21.3 14.05-20.45 17.35-19.5L17.35-19.5Q21.35-18.4 23.9-17.18 26.45-15.95 27.68-14.13 28.9-12.3 28.9-9.45L28.9-9.45Q28.9-6.3 27.25-4.08 25.6-1.85 22.63-0.68 19.65 0.5 15.6 0.5ZM48.2 0L36.6 0Q36.05 0 35.75-0.33 35.45-0.65 35.45-1.15L35.45-1.15 35.45-33.8Q35.45-34.35 35.75-34.68 36.05-35 36.6-35L36.6-35 47.95-35Q53.1-35 56.25-33.45 59.4-31.9 60.85-28.88 62.3-25.85 62.35-21.45L62.35-21.45Q62.4-19.2 62.4-17.5 62.4-15.8 62.35-13.6L62.35-13.6Q62.25-9 60.82-5.98 59.4-2.95 56.32-1.48 53.25 0 48.2 0L48.2 0ZM40.35-30.75L40.35-4.25 47.95-4.25Q51.4-4.25 53.45-5.2 55.5-6.15 56.42-8.25 57.35-10.35 57.4-13.8L57.4-13.8Q57.5-15.3 57.5-16.43 57.5-17.55 57.5-18.68 57.5-19.8 57.4-21.25L57.4-21.25Q57.3-26.1 55.1-28.43 52.9-30.75 47.7-30.75L47.7-30.75 40.35-30.75Z" opacity="1" transform="matrix(1,0,0,1,0,0)" fill="#ff4136" class="wordmark-text-0" data-fill-palette-color="primary" id="text-0"></path></svg></g></svg></g></svg></g></svg></g></svg></g></svg></g></svg></g></svg></g><defs></defs></svg><rect width="512" height="320" fill="none" stroke="none" visibility="hidden"></rect></g></svg></g></svg>